<svg xmlns="http://www.w3.org/2000/svg" viewBox="0 0 101.92 101.92"><defs><style>.cls-1{fill:#ffd561;}.cls-2{fill:#292929;}.cls-3{fill:#ff919b;}</style></defs><title>smile_face</title><g id="Layer_2" data-name="Layer 2"><g id="Graphic_Elements" data-name="Graphic Elements"><path class="cls-1" d="M57.25,101.71a110,110,0,0,1-14.53-.08,70,70,0,0,1-9-1C28,99.87,23.15,97.18,18.55,94a35.61,35.61,0,0,1-5.88-5.7c-.67-.74-1.36-1.46-2.1-2.13A15.79,15.79,0,0,1,7.16,81.5a79.68,79.68,0,0,1-5.6-13.82A41.85,41.85,0,0,1,.07,53.41c.12-2.65.35-5.29.54-7.93a64.11,64.11,0,0,1,1.22-9.36,32,32,0,0,1,2.48-6.31,47.21,47.21,0,0,1,3.82-6.89c1.4-2.08,2.87-4.12,4.31-6.17,1-1.5,1.83-3.17,3-4.61a20.28,20.28,0,0,1,9.33-6.89c2.8-1,5.52-2.23,8.25-3.43A27.13,27.13,0,0,1,38.57.44,22.84,22.84,0,0,1,43.09,0c4.74,0,9.49.06,14.24,0a40.39,40.39,0,0,1,11.3,1.82C73.14,3.05,77,5.52,81,7.9a66.29,66.29,0,0,1,6,3.81,30.94,30.94,0,0,1,5.59,5.73,75,75,0,0,1,4.46,6.28,24.85,24.85,0,0,1,3.64,9.77,135,135,0,0,1,.94,27.4A43.68,43.68,0,0,1,100.27,68a32.32,32.32,0,0,1-1.15,4c-.65,1.8-1,3.68-1.49,5.52a51.24,51.24,0,0,1-1.85,5.66,6.26,6.26,0,0,1-1.47,2.19c-.72.7-1,1.68-1.72,2.43a28.73,28.73,0,0,1-6.52,4.92,47.7,47.7,0,0,1-9,3.87c-5.38,2-10.83,4-16.54,4.82C59.43,101.5,58.35,101.62,57.25,101.71Z"/><path class="cls-2" d="M48.26,54.13a24,24,0,0,1-4.39-.34,8.78,8.78,0,0,1-2.81-1.13,18.74,18.74,0,0,1-5.57-4.35,15.74,15.74,0,0,1-3.24-6.79c-.09-.42.14-.5.43-.5q1.16,0,2.31,0c.47,0,.52.37.6.74a13.82,13.82,0,0,0,3.58,6.87c2,2,4.24,3.91,7.09,4.49A10.49,10.49,0,0,0,55,51.36a23.21,23.21,0,0,0,4.26-3.51,46.53,46.53,0,0,0,4-5.88,3.37,3.37,0,0,0,.32-.94c.34-1.33.34-1.38,1.75-1.35,2.25,0,1.88-.27,1.35,1.88a10.15,10.15,0,0,1-1.62,2.86,19.83,19.83,0,0,1-4.65,5.65c-2.3,1.69-4.57,3.47-7.57,3.8A30.85,30.85,0,0,1,48.26,54.13Z"/><path class="cls-3" d="M23.79,33.7a4,4,0,0,1,4.36,3.51c.23,2.54-.63,6.13-3.81,6.78a7.17,7.17,0,0,1-4.22-.36c-1.36-.57-1.94-1.87-1.78-3.75C18.55,37.43,20.78,33.26,23.79,33.7Z"/><path class="cls-3" d="M83.6,35.68A6.4,6.4,0,0,1,81,40.87a2.55,2.55,0,0,1-1.52.61c-2.45,0-4.62-.56-6.07-2.82-.89-1.4-.58-4.18.75-5,1.57-1,3.3-1.83,5.31-1.39.59.13,1.2.17,1.79.32C83.16,33.07,83.64,33.7,83.6,35.68Z"/><path class="cls-2" d="M37.05,35.75c-1.64-.09-3.29-.07-4.77-1a6.25,6.25,0,0,1-1.91-2.13A8.87,8.87,0,0,1,28.92,28c0-.64.24-.92.87-.88H30c.69,0,1.49-.23,2,.13s.14,1.22.3,1.84c.55,2.25,1.39,4.3,3.52,5.53a1.38,1.38,0,0,0,1.45,0c3.35-1.63,4.57-4.57,5.07-8a.38.38,0,0,1,.42-.37c.8,0,1.6,0,2.39,0,.42,0,.6.24.5.66-.76,3.25-1.83,6.27-5.12,8A6.53,6.53,0,0,1,37.05,35.75Z"/><path class="cls-2" d="M64.4,34.47a12.73,12.73,0,0,1-4.54-.7,4.34,4.34,0,0,1-2.07-1.71,17.43,17.43,0,0,1-2.39-5c-.22-.92-.13-1.06.82-1.11,2.24-.12,2.18-.1,2.79,2a13,13,0,0,0,2.47,4.44,3.35,3.35,0,0,0,2,1.08c1.39.28,2.07-.76,2.71-1.63a12.61,12.61,0,0,0,2.33-5.76c.1-.74.38-1,1.11-1,.52,0,1,0,1.57,0s.71.23.63.71c-.56,3-1.58,5.85-4.1,7.87C66.72,34.63,65.52,34.34,64.4,34.47Z"/></g></g></svg>